<?xml version="1.0" encoding="us-ascii" standalone="no"?><svg xmlns="http://www.w3.org/2000/svg" xmlns:xlink="http://www.w3.org/1999/xlink" contentStyleType="text/css" height="793px" preserveAspectRatio="none" style="width:744px;height:793px;background:#FFFFFF;" version="1.1" viewBox="0 0 744 793" width="744px" zoomAndPan="magnify"><defs/><g><line style="stroke:#181818;stroke-width:0.5;stroke-dasharray:5.0,5.0;" x1="23" x2="23" y1="81.2969" y2="713.0859"/><line style="stroke:#181818;stroke-width:0.5;stroke-dasharray:5.0,5.0;" x1="174" x2="174" y1="81.2969" y2="713.0859"/><line style="stroke:#181818;stroke-width:0.5;stroke-dasharray:5.0,5.0;" x1="349" x2="349" y1="81.2969" y2="713.0859"/><line style="stroke:#181818;stroke-width:0.5;stroke-dasharray:5.0,5.0;" x1="412" x2="412" y1="81.2969" y2="713.0859"/><line style="stroke:#181818;stroke-width:0.5;stroke-dasharray:5.0,5.0;" x1="466" x2="466" y1="81.2969" y2="713.0859"/><line style="stroke:#181818;stroke-width:0.5;stroke-dasharray:5.0,5.0;" x1="625" x2="625" y1="81.2969" y2="713.0859"/><line style="stroke:#181818;stroke-width:0.5;stroke-dasharray:5.0,5.0;" x1="701" x2="701" y1="81.2969" y2="713.0859"/><text fill="#000000" font-family="sans-serif" font-size="14" lengthAdjust="spacing" textLength="31" x="5" y="77.9951">User</text><ellipse cx="23.5" cy="13.5" fill="#E2E2F0" rx="8" ry="8" style="stroke:#181818;stroke-width:0.5;"/><path d="M23.5,21.5 L23.5,48.5 M10.5,29.5 L36.5,29.5 M23.5,48.5 L10.5,63.5 M23.5,48.5 L36.5,63.5 " fill="none" style="stroke:#181818;stroke-width:0.5;"/><text fill="#000000" font-family="sans-serif" font-size="14" lengthAdjust="spacing" textLength="31" x="5" y="725.0811">User</text><ellipse cx="23.5" cy="736.8828" fill="#E2E2F0" rx="8" ry="8" style="stroke:#181818;stroke-width:0.5;"/><path d="M23.5,744.8828 L23.5,771.8828 M10.5,752.8828 L36.5,752.8828 M23.5,771.8828 L10.5,786.8828 M23.5,771.8828 L36.5,786.8828 " fill="none" style="stroke:#181818;stroke-width:0.5;"/><rect fill="#E2E2F0" height="46.5938" rx="2.5" ry="2.5" style="stroke:#181818;stroke-width:0.5;" width="61" x="144" y="33.7031"/><text fill="#000000" font-family="sans-serif" font-size="14" lengthAdjust="spacing" textLength="47" x="151" y="53.6982">coffee</text><text fill="#000000" font-family="sans-serif" font-size="14" lengthAdjust="spacing" textLength="22" x="163.5" y="69.9951">api</text><rect fill="#E2E2F0" height="46.5938" rx="2.5" ry="2.5" style="stroke:#181818;stroke-width:0.5;" width="61" x="144" y="712.0859"/><text fill="#000000" font-family="sans-serif" font-size="14" lengthAdjust="spacing" textLength="47" x="151" y="732.0811">coffee</text><text fill="#000000" font-family="sans-serif" font-size="14" lengthAdjust="spacing" textLength="22" x="163.5" y="748.3779">api</text><rect fill="#E2E2F0" height="46.5938" rx="2.5" ry="2.5" style="stroke:#181818;stroke-width:0.5;" width="53" x="323" y="33.7031"/><text fill="#000000" font-family="sans-serif" font-size="14" lengthAdjust="spacing" textLength="39" x="330" y="53.6982">adam</text><text fill="#000000" font-family="sans-serif" font-size="14" lengthAdjust="spacing" textLength="22" x="338.5" y="69.9951">api</text><rect fill="#E2E2F0" height="46.5938" rx="2.5" ry="2.5" style="stroke:#181818;stroke-width:0.5;" width="53" x="323" y="712.0859"/><text fill="#000000" font-family="sans-serif" font-size="14" lengthAdjust="spacing" textLength="39" x="330" y="732.0811">adam</text><text fill="#000000" font-family="sans-serif" font-size="14" lengthAdjust="spacing" textLength="22" x="338.5" y="748.3779">api</text><rect fill="#E2E2F0" height="46.5938" rx="2.5" ry="2.5" style="stroke:#181818;stroke-width:0.5;" width="52" x="386" y="33.7031"/><text fill="#000000" font-family="sans-serif" font-size="14" lengthAdjust="spacing" textLength="38" x="393" y="53.6982">audio</text><text fill="#000000" font-family="sans-serif" font-size="14" lengthAdjust="spacing" textLength="22" x="401" y="69.9951">api</text><rect fill="#E2E2F0" height="46.5938" rx="2.5" ry="2.5" style="stroke:#181818;stroke-width:0.5;" width="52" x="386" y="712.0859"/><text fill="#000000" font-family="sans-serif" font-size="14" lengthAdjust="spacing" textLength="38" x="393" y="732.0811">audio</text><text fill="#000000" font-family="sans-serif" font-size="14" lengthAdjust="spacing" textLength="22" x="401" y="748.3779">api</text><text fill="#000000" font-family="sans-serif" font-size="14" lengthAdjust="spacing" textLength="19" x="453.5" y="77.9951">db</text><path d="M448,29 C448,19 466,19 466,19 C466,19 484,19 484,29 L484,55 C484,65 466,65 466,65 C466,65 448,65 448,55 L448,29 " fill="#E2E2F0" style="stroke:#181818;stroke-width:1.5;"/><path d="M448,29 C448,39 466,39 466,39 C466,39 484,39 484,29 " fill="none" style="stroke:#181818;stroke-width:1.5;"/><text fill="#000000" font-family="sans-serif" font-size="14" lengthAdjust="spacing" textLength="19" x="453.5" y="725.0811">db</text><path d="M448,738.3828 C448,728.3828 466,728.3828 466,728.3828 C466,728.3828 484,728.3828 484,738.3828 L484,764.3828 C484,774.3828 466,774.3828 466,774.3828 C466,774.3828 448,774.3828 448,764.3828 L448,738.3828 " fill="#E2E2F0" style="stroke:#181818;stroke-width:1.5;"/><path d="M448,738.3828 C448,748.3828 466,748.3828 466,748.3828 C466,748.3828 484,748.3828 484,738.3828 " fill="none" style="stroke:#181818;stroke-width:1.5;"/><rect fill="#99FF99" height="46.5938" rx="2.5" ry="2.5" style="stroke:#181818;stroke-width:0.5;" width="59" x="596" y="33.7031"/><text fill="#000000" font-family="sans-serif" font-size="14" lengthAdjust="spacing" textLength="41" x="605" y="53.6982">Adam</text><text fill="#000000" font-family="sans-serif" font-size="14" lengthAdjust="spacing" textLength="45" x="603" y="69.9951">Robot</text><rect fill="#99FF99" height="46.5938" rx="2.5" ry="2.5" style="stroke:#181818;stroke-width:0.5;" width="59" x="596" y="712.0859"/><text fill="#000000" font-family="sans-serif" font-size="14" lengthAdjust="spacing" textLength="41" x="605" y="732.0811">Adam</text><text fill="#000000" font-family="sans-serif" font-size="14" lengthAdjust="spacing" textLength="45" x="603" y="748.3779">Robot</text><rect fill="#99FF99" height="46.5938" rx="2.5" ry="2.5" style="stroke:#181818;stroke-width:0.5;" width="73" x="665" y="33.7031"/><text fill="#000000" font-family="sans-serif" font-size="14" lengthAdjust="spacing" textLength="49" x="677" y="53.6982">Coffee</text><text fill="#000000" font-family="sans-serif" font-size="14" lengthAdjust="spacing" textLength="59" x="672" y="69.9951">Machine</text><rect fill="#99FF99" height="46.5938" rx="2.5" ry="2.5" style="stroke:#181818;stroke-width:0.5;" width="73" x="665" y="712.0859"/><text fill="#000000" font-family="sans-serif" font-size="14" lengthAdjust="spacing" textLength="49" x="677" y="732.0811">Coffee</text><text fill="#000000" font-family="sans-serif" font-size="14" lengthAdjust="spacing" textLength="59" x="672" y="748.3779">Machine</text><polygon fill="#181818" points="162.5,108.4297,172.5,112.4297,162.5,116.4297,166.5,112.4297" style="stroke:#181818;stroke-width:1.0;"/><line style="stroke:#181818;stroke-width:1.0;" x1="23.5" x2="168.5" y1="112.4297" y2="112.4297"/><text fill="#000000" font-family="sans-serif" font-size="13" lengthAdjust="spacing" textLength="40" x="30.5" y="107.3638">/make</text><polygon fill="#181818" points="454,137.5625,464,141.5625,454,145.5625,458,141.5625" style="stroke:#181818;stroke-width:1.0;"/><line style="stroke:#181818;stroke-width:1.0;" x1="174.5" x2="460" y1="141.5625" y2="141.5625"/><text fill="#000000" font-family="sans-serif" font-size="13" lengthAdjust="spacing" textLength="205" x="181.5" y="136.4966">create new record to drink table</text><polygon fill="#181818" points="34.5,166.6953,24.5,170.6953,34.5,174.6953,30.5,170.6953" style="stroke:#181818;stroke-width:1.0;"/><line style="stroke:#181818;stroke-width:1.0;stroke-dasharray:2.0,2.0;" x1="28.5" x2="173.5" y1="170.6953" y2="170.6953"/><text fill="#000000" font-family="sans-serif" font-size="13" lengthAdjust="spacing" textLength="127" x="40.5" y="165.6294">create task success</text><polygon fill="#181818" points="337.5,195.8281,347.5,199.8281,337.5,203.8281,341.5,199.8281" style="stroke:#181818;stroke-width:1.0;"/><line style="stroke:#181818;stroke-width:1.0;" x1="174.5" x2="343.5" y1="199.8281" y2="199.8281"/><text fill="#000000" font-family="sans-serif" font-size="13" lengthAdjust="spacing" textLength="103" x="181.5" y="194.7622">/adam/take_cup</text><polygon fill="#181818" points="613.5,224.9609,623.5,228.9609,613.5,232.9609,617.5,228.9609" style="stroke:#181818;stroke-width:1.0;"/><line style="stroke:#181818;stroke-width:1.0;" x1="349.5" x2="619.5" y1="228.9609" y2="228.9609"/><text fill="#000000" font-family="sans-serif" font-size="13" lengthAdjust="spacing" textLength="207" x="356.5" y="223.895">goto hot cup position and take it</text><polygon fill="#181818" points="337.5,254.0938,347.5,258.0938,337.5,262.0938,341.5,258.0938" style="stroke:#181818;stroke-width:1.0;"/><line style="stroke:#181818;stroke-width:1.0;" x1="174.5" x2="343.5" y1="258.0938" y2="258.0938"/><text fill="#000000" font-family="sans-serif" font-size="13" lengthAdjust="spacing" textLength="151" x="181.5" y="253.0278">/adam/take_ingredients</text><polygon fill="#181818" points="613.5,283.2266,623.5,287.2266,613.5,291.2266,617.5,287.2266" style="stroke:#181818;stroke-width:1.0;"/><line style="stroke:#181818;stroke-width:1.0;" x1="349.5" x2="619.5" y1="287.2266" y2="287.2266"/><text fill="#000000" font-family="sans-serif" font-size="13" lengthAdjust="spacing" textLength="183" x="356.5" y="282.1606">goto hot ingredients position</text><polygon fill="#181818" points="613.5,312.3594,623.5,316.3594,613.5,320.3594,617.5,316.3594" style="stroke:#181818;stroke-width:1.0;"/><line style="stroke:#181818;stroke-width:1.0;" x1="349.5" x2="619.5" y1="316.3594" y2="316.3594"/><text fill="#000000" font-family="sans-serif" font-size="13" lengthAdjust="spacing" textLength="244" x="356.5" y="311.2935">control adam gpio and wait sometime</text><polygon fill="#181818" points="337.5,341.4922,347.5,345.4922,337.5,349.4922,341.5,345.4922" style="stroke:#181818;stroke-width:1.0;"/><line style="stroke:#181818;stroke-width:1.0;" x1="174.5" x2="343.5" y1="345.4922" y2="345.4922"/><text fill="#000000" font-family="sans-serif" font-size="13" lengthAdjust="spacing" textLength="149" x="181.5" y="340.4263">/adam/take_hot_coffee</text><polygon fill="#181818" points="613.5,370.625,623.5,374.625,613.5,378.625,617.5,374.625" style="stroke:#181818;stroke-width:1.0;"/><line style="stroke:#181818;stroke-width:1.0;" x1="349.5" x2="619.5" y1="374.625" y2="374.625"/><text fill="#000000" font-family="sans-serif" font-size="13" lengthAdjust="spacing" textLength="153" x="356.5" y="369.5591">goto hot coffee position</text><polygon fill="#181818" points="689.5,399.7578,699.5,403.7578,689.5,407.7578,693.5,403.7578" style="stroke:#181818;stroke-width:1.0;"/><line style="stroke:#181818;stroke-width:1.0;" x1="174.5" x2="695.5" y1="403.7578" y2="403.7578"/><text fill="#000000" font-family="sans-serif" font-size="13" lengthAdjust="spacing" textLength="106" x="181.5" y="398.6919">make hot coffee</text><polygon fill="#181818" points="454,428.8906,464,432.8906,454,436.8906,458,432.8906" style="stroke:#181818;stroke-width:1.0;"/><line style="stroke:#181818;stroke-width:1.0;" x1="174.5" x2="460" y1="432.8906" y2="432.8906"/><text fill="#000000" font-family="sans-serif" font-size="13" lengthAdjust="spacing" textLength="189" x="181.5" y="427.8247">change task status is starting</text><polygon fill="#181818" points="185.5,458.0234,175.5,462.0234,185.5,466.0234,181.5,462.0234" style="stroke:#181818;stroke-width:1.0;"/><line style="stroke:#181818;stroke-width:1.0;" x1="179.5" x2="700.5" y1="462.0234" y2="462.0234"/><text fill="#000000" font-family="sans-serif" font-size="13" lengthAdjust="spacing" textLength="223" x="191.5" y="456.9575">check coffee status == processing</text><polygon fill="#181818" points="454,487.1563,464,491.1563,454,495.1563,458,491.1563" style="stroke:#181818;stroke-width:1.0;"/><line style="stroke:#181818;stroke-width:1.0;" x1="174.5" x2="460" y1="491.1563" y2="491.1563"/><text fill="#000000" font-family="sans-serif" font-size="13" lengthAdjust="spacing" textLength="209" x="181.5" y="486.0903">change task status is processing</text><polygon fill="#181818" points="185.5,516.2891,175.5,520.2891,185.5,524.2891,181.5,520.2891" style="stroke:#181818;stroke-width:1.0;"/><line style="stroke:#181818;stroke-width:1.0;" x1="179.5" x2="700.5" y1="520.2891" y2="520.2891"/><text fill="#000000" font-family="sans-serif" font-size="13" lengthAdjust="spacing" textLength="176" x="191.5" y="515.2231">check coffee status == idle</text><polygon fill="#181818" points="454,545.4219,464,549.4219,454,553.4219,458,549.4219" style="stroke:#181818;stroke-width:1.0;"/><line style="stroke:#181818;stroke-width:1.0;" x1="174.5" x2="460" y1="549.4219" y2="549.4219"/><text fill="#000000" font-family="sans-serif" font-size="13" lengthAdjust="spacing" textLength="208" x="181.5" y="544.356">change task status is completed</text><polygon fill="#181818" points="337.5,574.5547,347.5,578.5547,337.5,582.5547,341.5,578.5547" style="stroke:#181818;stroke-width:1.0;"/><line style="stroke:#181818;stroke-width:1.0;" x1="174.5" x2="343.5" y1="578.5547" y2="578.5547"/><text fill="#000000" font-family="sans-serif" font-size="13" lengthAdjust="spacing" textLength="96" x="181.5" y="573.4888">/adam/put_cup</text><polygon fill="#181818" points="613.5,603.6875,623.5,607.6875,613.5,611.6875,617.5,607.6875" style="stroke:#181818;stroke-width:1.0;"/><line style="stroke:#181818;stroke-width:1.0;" x1="349.5" x2="619.5" y1="607.6875" y2="607.6875"/><text fill="#000000" font-family="sans-serif" font-size="13" lengthAdjust="spacing" textLength="237" x="356.5" y="602.6216">left arm goto middle position put cup</text><polygon fill="#181818" points="613.5,632.8203,623.5,636.8203,613.5,640.8203,617.5,636.8203" style="stroke:#181818;stroke-width:1.0;"/><line style="stroke:#181818;stroke-width:1.0;" x1="349.5" x2="619.5" y1="636.8203" y2="636.8203"/><text fill="#000000" font-family="sans-serif" font-size="13" lengthAdjust="spacing" textLength="252" x="356.5" y="631.7544">right arm goto middle position take cup</text><polygon fill="#181818" points="613.5,661.9531,623.5,665.9531,613.5,669.9531,617.5,665.9531" style="stroke:#181818;stroke-width:1.0;"/><line style="stroke:#181818;stroke-width:1.0;" x1="349.5" x2="619.5" y1="665.9531" y2="665.9531"/><text fill="#000000" font-family="sans-serif" font-size="13" lengthAdjust="spacing" textLength="111" x="356.5" y="660.8872">right arm put cup</text><polygon fill="#181818" points="400,691.0859,410,695.0859,400,699.0859,404,695.0859" style="stroke:#181818;stroke-width:1.0;"/><line style="stroke:#181818;stroke-width:1.0;" x1="174.5" x2="406" y1="695.0859" y2="695.0859"/><text fill="#000000" font-family="sans-serif" font-size="13" lengthAdjust="spacing" textLength="178" x="181.5" y="690.02">tts: hot coffee is completed</text><!--SRC=[ZLDBRuCm3BxpAwpkNFLSr4wQ9lMsowJT9bLkue9LIAB4g7z_2Oy2NSl6XOHyBpi6bLWFtVCLo6SElR1YXqPWfUpvJFHjqF4AC42tdsDGOpqYqkxklD5i9u2qpJGAdZ1GijMdEU6j5Voq9oijmwSLl6otXyDsEuU-z_a-K9LiQCXu0wUAOFtQvuOSDZLUAClwVJpHf_XLUK8XC7G5Jyfw3M91UpONY34hwdHsw_Ker5C4mmL2enI5C55DNKXkwRsHQ7bKZSlQh_6qBIY7maQNCfOMpy3PmCBM09he7Xd0iYZ8fl2acOo4fy8JpCtW7goi4M-hpg5mRDi4LsI1O6iIhcanH_GvzcFnjBwEVaimoiLL3kbA9hZPvSHy9PfYQBIWD04uf5KS0rCCuDswqr8bgSjWsCFtUt3UfXkQ41RLVyF_q6TT_I-tihMhI4XdTqqTUkeQUJGh5Pq5qDTTKslMqN2ScKY21oJFHRd0QgTiaJReJgAclpS7aP1FhtPQsGy0]--></g></svg>