<?xml version="1.0" encoding="us-ascii" standalone="no"?><svg xmlns="http://www.w3.org/2000/svg" xmlns:xlink="http://www.w3.org/1999/xlink" contentStyleType="text/css" height="549px" preserveAspectRatio="none" style="width:291px;height:549px;background:#FFFFFF;" version="1.1" viewBox="0 0 291 549" width="291px" zoomAndPan="magnify"><defs/><g><text fill="#000000" font-family="sans-serif" font-size="12" lengthAdjust="spacing" textLength="4" x="62" y="16.1387">&#160;</text><text fill="#000000" font-family="sans-serif" font-size="12" lengthAdjust="spacing" textLength="4" x="62" y="130.1074">&#160;</text><text fill="#000000" font-family="sans-serif" font-size="12" lengthAdjust="spacing" textLength="26" x="40" y="234.0762">dmz</text><text fill="#000000" font-family="sans-serif" font-size="12" lengthAdjust="spacing" textLength="61" x="5" y="248.0449">0.0.0.0/24</text><text fill="#000000" font-family="sans-serif" font-size="12" lengthAdjust="spacing" textLength="44" x="22" y="399.6543">internal</text><text fill="#000000" font-family="sans-serif" font-size="12" lengthAdjust="spacing" textLength="55" x="11" y="413.623">127.0.0.1</text><rect fill="#E2E2F0" height="5" style="stroke:#181818;stroke-width:1.0;" width="212" x="71" y="227.4219"/><rect fill="#E2E2F0" height="5" style="stroke:#181818;stroke-width:1.0;" width="212" x="71" y="393"/><path d="M125.5,88.4531 L125.5,123.4531 " fill="none" style="stroke:#181818;stroke-width:1.0;"/><path d="M125.5,123.4531 L125.5,158.4531 " fill="none" style="stroke:#181818;stroke-width:1.0;"/><path d="M123.5,192.4219 L123.5,227.4219 " fill="none" style="stroke:#181818;stroke-width:1.0;"/><path d="M127.5,232.4219 L127.5,275.2266 " fill="none" style="stroke:#181818;stroke-width:1.0;"/><text fill="#000000" font-family="sans-serif" font-size="11" lengthAdjust="spacing" textLength="55" x="100" y="255.1323">host:9000</text><path d="M127.5,345.1953 L127.5,393 " fill="none" style="stroke:#181818;stroke-width:1.0;"/><text fill="#000000" font-family="sans-serif" font-size="11" lengthAdjust="spacing" textLength="55" x="100" y="372.9058">host:9000</text><path d="M233.5,232.4219 L233.5,277.2266 " fill="none" style="stroke:#181818;stroke-width:1.0;"/><text fill="#000000" font-family="sans-serif" font-size="11" lengthAdjust="spacing" textLength="28" x="219.5" y="256.1323">8080</text><path d="M233.5,343.1953 L233.5,393 " fill="none" style="stroke:#181818;stroke-width:1.0;"/><text fill="#000000" font-family="sans-serif" font-size="11" lengthAdjust="spacing" textLength="28" x="219.5" y="371.9058">8080</text><path d="M123.5,398 L123.5,434.4023 " fill="none" style="stroke:#181818;stroke-width:1.0;"/><text fill="#000000" font-family="sans-serif" font-size="11" lengthAdjust="spacing" textLength="28" x="109.5" y="417.5093">5432</text><path d="M229.5,398 L229.5,434.4023 " fill="none" style="stroke:#181818;stroke-width:1.0;"/><text fill="#000000" font-family="sans-serif" font-size="11" lengthAdjust="spacing" textLength="59" x="200" y="417.5093">6379,7379</text><path d="M95.5415,54.2388 C99.3746,46.1026 104.0845,45.5204 110.8858,50.8587 C113.7026,41.1 120.6657,39.5792 127.3483,47.1961 C132.7132,41.6158 138.8477,42.5462 141.4285,50.1659 C147.7259,42.6874 155.4334,45.4312 157.4086,54.3724 C164.1668,57.539 165.7224,64.0182 158.6761,68.4295 C163.6666,73.7646 163.6851,79.486 155.9745,82.3574 C152.524,90.2839 144.9633,88.8296 140.9701,82.947 C137.6055,91.7337 131.5379,91.5564 126.0521,85.0109 C120.2077,90.8531 116.0617,89.6155 112.5099,82.5968 C107.5776,89.936 99.8452,89.9126 95.9634,81.4937 C87.2945,81.9545 84.0757,74.9539 88.1835,68.0311 C84.5268,60.7885 86.5974,54.7591 95.5415,54.2388 " fill="#F1F1F1" style="stroke:#181818;stroke-width:0.5;"/><text fill="#000000" font-family="sans-serif" font-size="12" lengthAdjust="spacing" textLength="46" x="102.5" y="70.623">internet</text><rect fill="#F1F1F1" height="33.9688" style="stroke:#181818;stroke-width:0.5;" width="37" x="107" y="158.4531"/><text fill="#000000" font-family="sans-serif" font-size="12" lengthAdjust="spacing" textLength="17" x="117" y="179.5918">frp</text><rect fill="#F1F1F1" height="69.9688" style="stroke:#181818;stroke-width:0.5;" width="58" x="96.5" y="275.2266"/><path d="M125.5,285.2266 C120.55,285.2266 116.5,290.2666 116.5,296.4766 C116.5,302.6866 120.55,307.7266 125.5,307.7266 C130.45,307.7266 134.5,302.6866 134.5,296.4766 C134.5,290.2666 130.45,285.2266 125.5,285.2266 M116.095,307.7266 C111.325,307.9516 107.5,311.8666 107.5,316.7266 L107.5,321.2266 L143.5,321.2266 L143.5,316.7266 C143.5,311.8666 139.72,307.9516 134.905,307.7266 C132.475,310.4716 129.145,312.2266 125.5,312.2266 C121.855,312.2266 118.525,310.4716 116.095,307.7266 " fill="#000000" style="stroke:;stroke-width:0.0;stroke-dasharray:;"/><text fill="#000000" font-family="sans-serif" font-size="12" lengthAdjust="spacing" textLength="18" x="110.5" y="332.3652">api</text><rect fill="#F1F1F1" height="65.9688" style="stroke:#181818;stroke-width:0.5;" width="73" x="195" y="277.2266"/><path d="M220,287.2266 L218,291.9866 C217.6,292.1066 217.24,292.3066 216.88,292.5066 L212.12,290.5066 L209.24,293.3866 L211.24,298.1466 C211.04,298.5466 210.88,298.8666 210.72,299.2666 L205.96,301.2666 L205.96,305.2666 L210.72,307.2666 C210.88,307.6666 211.04,307.9866 211.24,308.3866 L209.24,313.1466 L212.12,316.0266 L216.88,314.0266 C217.24,314.1866 217.6,314.3866 218,314.5466 L220,319.3066 L224,319.3066 L226,314.5466 C226.36,314.3866 226.76,314.2266 227.12,314.0266 L231.88,316.0266 L234.76,313.1466 L232.76,308.3866 C232.92,308.0266 233.12,307.6266 233.28,307.2666 L238.04,305.2666 L238.04,301.2666 L233.28,299.2666 C233.16,298.9066 232.96,298.5066 232.76,298.1466 L234.76,293.3866 L231.88,290.5066 L227.12,292.5066 C226.76,292.3466 226.36,292.1466 226,291.9866 L224,287.2266 L220,287.2266 M222,297.2266 C225.32,297.2266 228,299.9066 228,303.2266 C228,306.5466 225.32,309.2266 222,309.2266 C218.68,309.2266 216,306.5466 216,303.2266 C216,299.9066 218.68,297.2266 222,297.2266 " fill="#000000" style="stroke:;stroke-width:0.0;stroke-dasharray:;"/><text fill="#000000" font-family="sans-serif" font-size="12" lengthAdjust="spacing" textLength="49" x="209" y="330.3652">adminer</text><rect fill="#F1F1F1" height="65.9688" style="stroke:#181818;stroke-width:0.5;" width="79" x="86" y="434.4023"/><path d="M100,444.4023 C98.36,444.4023 97,445.7623 97,447.4023 L97,469.4023 C97,471.0423 98.36,472.4023 100,472.4023 L126,472.4023 C127.64,472.4023 129,471.0423 129,469.4023 L129,447.4023 C129,445.7623 127.64,444.4023 126,444.4023 L100,444.4023 M101,448.4023 L105,448.4023 L105,452.4023 L101,452.4023 L101,448.4023 M109,448.4023 L125,448.4023 L125,452.4023 L109,452.4023 L109,448.4023 M101,456.4023 L105,456.4023 L105,460.4023 L101,460.4023 L101,456.4023 M109,456.4023 L125,456.4023 L125,460.4023 L109,460.4023 L109,456.4023 M101,464.4023 L105,464.4023 L105,468.4023 L101,468.4023 L101,464.4023 M109,464.4023 L125,464.4023 L125,468.4023 L109,468.4023 L109,464.4023 " fill="#000000" style="stroke:;stroke-width:0.0;stroke-dasharray:;"/><text fill="#000000" font-family="sans-serif" font-size="12" lengthAdjust="spacing" textLength="55" x="100" y="487.541">postgres</text><rect fill="#F1F1F1" height="65.9688" style="stroke:#181818;stroke-width:0.5;" width="68" x="197.5" y="434.4023"/><path d="M211.5,444.4023 C209.86,444.4023 208.5,445.7623 208.5,447.4023 L208.5,469.4023 C208.5,471.0423 209.86,472.4023 211.5,472.4023 L237.5,472.4023 C239.14,472.4023 240.5,471.0423 240.5,469.4023 L240.5,447.4023 C240.5,445.7623 239.14,444.4023 237.5,444.4023 L211.5,444.4023 M212.5,448.4023 L216.5,448.4023 L216.5,452.4023 L212.5,452.4023 L212.5,448.4023 M220.5,448.4023 L236.5,448.4023 L236.5,452.4023 L220.5,452.4023 L220.5,448.4023 M212.5,456.4023 L216.5,456.4023 L216.5,460.4023 L212.5,460.4023 L212.5,456.4023 M220.5,456.4023 L236.5,456.4023 L236.5,460.4023 L220.5,460.4023 L220.5,456.4023 M212.5,464.4023 L216.5,464.4023 L216.5,468.4023 L212.5,468.4023 L212.5,464.4023 M220.5,464.4023 L236.5,464.4023 L236.5,468.4023 L220.5,468.4023 L220.5,464.4023 " fill="#000000" style="stroke:;stroke-width:0.0;stroke-dasharray:;"/><text fill="#000000" font-family="sans-serif" font-size="12" lengthAdjust="spacing" textLength="44" x="211.5" y="487.541">webdis</text><!--SRC=[ZO_BRiCW44Nt-OeHYowY92MEK-VL_aYQ1JLJ6pK115IM4ldVowDnRSbL2n8IpDmp7DbmmIguJG24T6WaEZY2hPb6U8Roh3xvQTylpkVmRdHuyhT6cG_WbslCXyKuDsYjZnAwYFinoyczg0KSUnsricwtfPII6G17MngXdL0or0uF6erLSfelrY-lCcJ9gHjo4HBDWBMXct5CgQff7WafHQ9EMDyQRKybMRBpcCyoAwBHakp_zEbc_FhLhaFxKELBWvPrlif6RQmsoBYj4LsokiT_W0s-SJ74FQsAxQpmn_-OYP28xQJz0W00]--></g></svg>